<svg xmlns="http://www.w3.org/2000/svg" width="256" height="256"><path fill="#1976D2" fill-opacity=".016" fill-rule="evenodd" d="M0 128.004v128.004l128.25-.254 128.25-.254.254-127.75L257.008 0H0zm.485.496c0 70.4.119 99.053.265 63.672s.146-92.98 0-128S.485 58.1.485 128.5"/><path fill="#1976D2" fill-opacity=".263" fill-rule="evenodd" d="M89 31.344c-4.125 1.23-10.385 3.782-13.912 5.672-7.601 4.073-17.788 13.779-21.76 20.734-2.627 4.599-3.03 4.9-5.335 3.989-4.136-1.635-17.033-1.254-21.265.629-5.643 2.509-11.239 8.06-13.501 13.39-1.106 2.608-2.501 8.46-3.099 13.003-1.252 9.507-2.876 13.211-7.113 16.228-3.668 2.612-4.008 6.335-.765 8.394 1.238.786 4.815 1.988 7.95 2.671 10.029 2.185 20.444-1.22 29.925-9.786 2.908-2.627 3.875-3.081 3.875-1.82 0 .925-1.296 2.772-2.881 4.105s-3.609 3.959-4.5 5.837c-1.97 4.153-2.103 12.516-.268 16.908 2.758 6.6 11.797 11.943 17.626 10.418 1.487-.389 2.535.483 4.392 3.651 2.986 5.095 11.688 13.461 17.39 16.719 2.324 1.328 4.217 2.639 4.206 2.914s-2.75 2.3-6.086 4.5c-11.972 7.894-21.93 21.906-24.99 35.16-1.657 7.178-.736 9.755 4.357 12.198 6.345 3.043 21.017 7.057 31.754 8.687 12.723 1.933 43.471 1.899 56.5-.061 17.785-2.676 32.456-7.742 35.68-12.321 1.28-1.816 2.087-1.751 26.44 2.127l25.119 3.999 3.816-1.894c2.099-1.042 4.623-3.02 5.609-4.395 1.243-1.733 4.105-15.227 9.333-44 4.148-22.825 7.81-43.783 8.139-46.574 1.134-9.625-3.664-14.479-16.333-16.522-5.068-.818-7.303-1.611-7.303-2.591 0-2.732-3.064-7.295-5.874-8.748C223.117 93.009 201.478 89 196.089 89c-3.869 0-8.441 2.236-10.457 5.115-1.337 1.909-1.984 2.037-6.3 1.249l-4.809-.879-.706-4.993c-.388-2.745-.974-6.446-1.303-8.223l-.597-3.23 6.791 3.433c8.385 4.239 13.62 5.472 23.36 5.504 13.513.043 24.105-4.935 30.624-14.394 3.67-5.326 4.077-7.67 1.736-10.011-1.212-1.213-2.773-1.43-6.831-.953-4.891.574-5.511.396-8.857-2.542-1.979-1.737-4.739-5.105-6.133-7.484-3.483-5.942-12.491-13.941-17.335-15.392-10.551-3.162-21.032.099-28.397 8.834-2.239 2.655-4.742 5.085-5.563 5.4-.923.354-3.771-1.492-7.481-4.849-7.462-6.753-17.401-12.045-27.44-14.613-10.985-2.809-27.266-2.648-37.391.372"/><path fill="#1976D2" fill-opacity=".448" fill-rule="evenodd" d="M93.5 30.48c-8.21 1.807-15.777 4.933-22.098 9.129-6.415 4.258-15.683 14.061-18.484 19.552-1.558 3.054-2.444 3.837-3.731 3.296-3.247-1.365-16.876-1.715-20.477-.526-9.763 3.222-15.976 11.708-17.697 24.173-1.655 11.986-2.034 13.005-6.714 18.008-5.655 6.045-5.271 8.072 1.985 10.482 8.032 2.668 15.678 2.192 23.033-1.434 3.401-1.676 7.927-4.648 10.059-6.604 4.495-4.124 4.624-4.171 4.624-1.671 0 1.037-1.074 2.588-2.386 3.448s-3.337 3.529-4.5 5.931c-6.07 12.54 1.958 27.121 14.934 27.121 4.483 0 4.969.241 6.131 3.046 1.761 4.253 12.377 14.572 18.071 17.567 2.612 1.374 4.741 2.724 4.73 3s-2.329 1.852-5.152 3.502c-8.694 5.082-17.304 14.516-21.722 23.802-4.916 10.33-6.724 17.674-5.1 20.709 1.407 2.629 6.595 5.018 18.2 8.378 35.179 10.186 94.088 5.818 108.93-8.077l2.637-2.468 18.863 3.15c31.932 5.333 37.209 5.105 40.733-1.761 1.055-2.055 13.127-65.704 17.209-90.733 1.099-6.738-5.552-13.692-14.301-14.954-8.358-1.206-9.123-1.567-9.792-4.613-.641-2.921-5.029-7.359-8.23-8.324-5.409-1.63-27.221-4.65-29.923-4.143-1.869.35-4.431 2.022-6.217 4.056-3.032 3.453-3.049 3.458-7.944 2.328l-4.906-1.132-1.383-8.618-1.382-8.618 7.259 3.648c18.964 9.528 39.694 7.058 51.563-6.143 8.052-8.956 7.1-13.508-2.74-13.11-7.112.288-9.431-1.262-15.624-10.44-6.043-8.955-10.886-13.046-17.86-15.086-10.278-3.008-16.97-.7-27.283 9.412l-6.685 6.554-4.498-4.628c-5.064-5.21-12.701-10.3-20.132-13.418-11.733-4.923-29.551-6.532-42-3.791m23.254 42.901C106.173 87.746 86.118 98 68.606 98H62v3.032c0 1.668-.645 4.577-1.434 6.465-1.442 3.451-2.003 3.739-9.679 4.965-4.583.732-6.912 3.308-7.595 8.4-1.225 9.132 3.246 13.656 12.402 12.549l5.194-.627 2.257 4.858c3.197 6.882 12.977 16.339 20.855 20.166 12.516 6.082 28.193 8.109 40.499 5.238 7.205-1.681 16.492-6.525 21.776-11.359l4.577-4.187 3.648-20.88c3.798-21.734 4.641-25.013 7.141-27.776 1.374-1.518 1.008-1.804-4.267-3.338C142.453 91.169 132.699 83.7 123 69.183c-1.486-2.223-1.544-2.184-6.246 4.198m13.319 31.254c-1.14 1.449-2.073 3.719-2.073 5.045 0 2.676 4.07 7.32 6.416 7.32s5.584-4.091 5.584-7.054c0-3.308-3.502-7.946-6-7.946-1.02 0-2.788 1.186-3.927 2.635m38.129-.878c-1.567 1.363-2.694 5.555-5.174 19.243-1.744 9.625-5.18 28.3-7.636 41.5s-4.523 25.489-4.593 27.308c-.253 6.577.516 6.837 37.825 12.783 18.632 2.969 35.553 5.401 37.603 5.404 4.88.007 6.096-2.015 8.113-13.495 13.562-77.174 13.732-78.372 11.41-80.285-1.047-.863-11.242-3.215-13.934-3.215-.449 0-.816.72-.816 1.6s-1.53 3.13-3.4 5c-4.173 4.173-5.549 4.227-23.425.905-16.681-3.099-19.989-5.26-21.374-13.961-.222-1.394-1.461-2.184-4.306-2.746-2.197-.434-4.961-1.013-6.142-1.287-1.234-.286-3.001.244-4.151 1.246m-82.647 3.182c-2.567 2.837-2.317 9.026.456 11.271 2.852 2.309 4.52 2.259 6.989-.21 2.614-2.614 2.712-9.046.171-11.345-2.436-2.205-5.466-2.092-7.616.284m103.526 26.833c-3.53 3.144-6.575 5.269-6.767 4.722s-1.365-2.794-2.607-4.994c-2.829-5.012-7.254-6.153-8.264-2.13-.921 3.669 7.553 16.63 10.873 16.63C185.17 148 201 134.479 201 132.041c0-2.08-1.938-4.049-3.95-4.014-.853.016-4.438 2.6-7.969 5.745m-64.301-1.675c-3.046 4.138-6.722 5.903-12.296 5.903-5.335 0-7.713-1.036-12.264-5.346-2.643-2.501-3.615-2.896-5-2.028-4.232 2.653-1.293 8.709 6.125 12.622 5.844 3.084 16.493 3.069 22.371-.031 3.628-1.913 9.284-8.235 9.284-10.378 0-1.224-3.093-3.839-4.541-3.839-.77 0-2.425 1.394-3.679 3.097m104.657.997c-1.615 1.701-5.051 4.873-7.635 7.049l-4.699 3.957-1.577-3.05c-2.559-4.949-8.504-3.085-7.166 2.248.87 3.467 6.425 10.702 8.217 10.702.86 0 6.092-4.416 11.628-9.814 9.231-9.002 9.967-9.996 8.894-12-1.624-3.036-4.208-2.73-7.662.908M166.2 159.2c-.66.66-1.2 1.86-1.2 2.666 0 2.201 8.767 15.831 10.647 16.552.899.345 2.705-.074 4.013-.931 3.32-2.175 16.34-14.555 16.34-15.537 0-1.224-2.986-3.951-4.321-3.946-.649.003-3.951 2.478-7.339 5.5-3.389 3.023-6.383 5.496-6.655 5.496s-1.736-2.137-3.253-4.75c-3.709-6.386-5.684-7.598-8.232-5.05m-20.7 2.8c-.34.55.084 1 .941 1s1.559-.45 1.559-1-.423-1-.941-1-1.219.45-1.559 1m73.556 6.435-6.444 6.51-2.088-3.723c-1.489-2.654-2.764-3.722-4.447-3.722-4.529 0-4.715 2.667-.689 9.867 5.013 8.964 6.121 8.865 17.097-1.524 7.073-6.696 8.563-8.622 8.316-10.75-.223-1.922-.948-2.668-2.801-2.881-1.939-.223-3.945 1.173-8.944 6.223m-90.556 1.29c-4.527 1.792-24.015 2.361-31.375.916l-4.376-.859 2.312 4.112c5.603 9.97 24.152 12.385 32.978 4.294 2.827-2.591 6.788-10.262 5.224-10.118-.419.039-2.563.784-4.763 1.655"/><path fill="#1976D2" fill-opacity=".716" fill-rule="evenodd" d="M95 30.516C77.239 34.145 64.961 42.05 55.437 55.989c-4.774 6.988-4.828 7.028-8.371 6.272-1.961-.419-6.716-.738-10.566-.709-8.19.06-13.427 2.323-18.347 7.926-4.249 4.84-5.924 9.189-7.076 18.383-1.281 10.213-2.336 12.693-7.353 17.279-5.117 4.677-4.558 6.46 2.861 9.127 10.523 3.783 22.686.79 32.445-7.984 4.461-4.011 4.97-4.241 4.97-2.247 0 1.222-1.551 3.938-3.446 6.036C29.894 121.872 37.023 141 52.08 141c3.968 0 4.898.355 5.445 2.079 1.063 3.349 12.832 15.16 18.355 18.421 2.794 1.65 5.077 3.225 5.073 3.5-.005.275-2.732 2.3-6.062 4.5-12.435 8.216-22.921 23.179-25.581 36.5-1.645 8.238-.697 9.19 13.731 13.784 26.001 8.278 61.116 9.355 90.08 2.761 12.274-2.794 18.917-5.492 22.608-9.183l2.695-2.695 24.178 3.798c15.422 2.423 25.464 3.558 27.728 3.133 3.769-.707 8.281-5.093 9.181-8.925 2.231-9.489 15.488-86.114 15.488-89.523.001-3.589-.577-4.928-3.3-7.651-2.79-2.79-4.514-3.506-11.129-4.617l-7.827-1.315-1.808-4.219c-.995-2.321-2.85-4.899-4.122-5.73-2.875-1.877-23.262-5.618-30.62-5.618-4.947 0-5.767.329-8.776 3.52-3.012 3.193-3.682 3.461-7.23 2.894-2.151-.344-4.418-.939-5.037-1.321-.929-.575-4.518-17.064-3.856-17.718.113-.112 3.806 1.54 8.206 3.67 16.724 8.096 33.373 7.392 46.231-1.954 5.521-4.014 9.517-10.057 9.094-13.753-.318-2.776-.46-2.838-6.503-2.839-7.781-.001-9.772-1.405-17.81-12.562-4.996-6.935-7.038-8.897-11.783-11.324-10.77-5.507-22.994-2.963-31.065 6.467-6.771 7.91-6.845 7.915-14.192 1.043C139.12 32.697 115.361 26.356 95 30.516m2 7.174c-5.913.989-15.303 4.707-20.69 8.192C60.322 56.224 51 75.221 51 97.458c0 5.755.328 7.542 1.383 7.542 1.525 0 2.582-2.972 2.603-7.316.028-5.621 1.421-6.682 8.799-6.701 21.525-.056 42.312-11.703 52.172-29.233 2.77-4.926 3.648-5.75 6.122-5.75 2.483 0 3.255.735 5.514 5.25 7.378 14.745 19.409 24.23 35.682 28.135 3.115.747 3.106 1.553.122-10.772-3.725-15.382-14.139-29.009-26.835-35.115C125.323 38.092 108.963 35.69 97 37.69m84.095 6.344c-1.323.559-5.494 3.93-9.269 7.491S164.54 58 164.024 58c-.517 0 .393 2.813 2.022 6.25 2.405 5.076 3.353 6.188 5.051 5.921 1.149-.18 5.881 1.594 10.514 3.943 7.603 3.855 9.276 4.312 17.157 4.687 4.802.228 10.575-.082 12.828-.69C216.14 76.885 224 71.636 224 69.827c0-.638-.263-.897-.585-.575-.916.916-6.585-1.283-10.173-3.947-1.792-1.33-5.485-5.72-8.208-9.754-2.766-4.099-6.568-8.336-8.617-9.602-4.085-2.525-11.643-3.469-15.322-1.915m-62.43 26.457C109.267 85.367 85.617 98 67.166 98h-4.939l-.694 4.626C60.614 108.76 57.394 112 52.22 112c-9.355 0-13.44 13.272-6.01 19.523 2.725 2.293 3.881 2.6 8.701 2.311l5.559-.334 2.515 4.6c4.176 7.639 7.556 11.374 14.724 16.272 13.247 9.05 31.103 12.654 45.678 9.217 8.657-2.041 19.142-7.499 24.036-12.51l3.76-3.85 3.936-21.756c3.556-19.66 5.859-27.473 8.097-27.473.431 0 .784-.399.784-.886 0-.488-2.029-1.191-4.509-1.563-6.28-.942-19.329-7.701-25.394-13.153-2.793-2.512-6.722-7.229-8.73-10.482-2.008-3.254-3.7-5.915-3.759-5.914s-1.384 2.021-2.943 4.489m-90.488.192c-1.827.9-4.402 3.225-5.72 5.166-2.267 3.336-2.805 5.298-5.351 19.52-.618 3.456-2.102 7.248-3.609 9.223l-2.558 3.355 2.537.636c7.707 1.935 18.741-3.896 26.298-13.896 3.132-4.146 4.231-6.793 5.473-13.187.855-4.4 1.849-8.728 2.21-9.619.464-1.144-.019-1.799-1.65-2.236-4.451-1.192-14.279-.613-17.63 1.038m163.858 28.251c-1.263 2.361-1.374 10.739-.152 11.494.486.3 7.123 1.645 14.75 2.988 10.639 1.875 14.135 2.169 15.02 1.264 1.86-1.903 2.726-11.122 1.166-12.41-1.414-1.167-22.431-5.27-26.998-5.27-1.696 0-3.148.742-3.786 1.934m-24.359 4.316c-1.311.96-3.58 11.417-9.781 45.073-4.487 24.353-7.806 44.896-7.469 46.238.333 1.327 1.611 3.056 2.84 3.842 2.735 1.747 73.021 12.958 75.771 12.085 3.739-1.186 2.968 2.135 13.465-57.988 3.074-17.6 5.348-32.956 5.056-34.123-.558-2.225-3.672-3.818-9.558-4.889-1.925-.351-4.216-.836-5.092-1.08-1.114-.309-2.067.77-3.177 3.596-1.197 3.047-2.499 4.419-5.307 5.592-3.488 1.457-4.622 1.385-18.114-1.149-17.012-3.195-20.114-4.812-22.303-11.622-1.456-4.533-1.625-4.673-6.917-5.736-6.826-1.371-7.335-1.362-9.414.161m-37.641 1.684c-2.635 4.924-.482 11.066 3.878 11.066 1.563 0 3.435-.715 4.16-1.588 1.619-1.951 1.561-7.944-.097-9.941-1.785-2.151-6.695-1.864-7.941.463M88 105.762c-2.439.761-4 3.404-4 6.774 0 5.819 6.343 8.668 9.443 4.241 3.694-5.273.016-12.717-5.443-11.015M190 133.5c-3.29 3.025-6.429 5.5-6.974 5.5-.546 0-2.147-2.278-3.558-5.063-2.059-4.062-3.001-5.001-4.767-4.75-3.543.504-3.238 4.218.932 11.346 5.624 9.615 6.514 9.565 18.117-1.006 4.218-3.844 6.25-6.445 6.25-8.004 0-1.913-1.641-3.523-3.59-3.523-.235 0-3.12 2.475-6.41 5.5m-66.257-.088c-6.952 7.052-16.541 7.227-22.902.418-3.103-3.323-7.084-3.572-7.673-.481-.465 2.438 4.311 7.43 9.332 9.755 5.503 2.548 15.359 2.519 20.414-.06 4.49-2.291 9.086-7.392 9.086-10.086 0-1.038-.876-2.356-1.947-2.93-1.64-.877-2.635-.344-6.31 3.384m100.757 4.596c-5.99 6.061-7.144 6.843-8 5.419-2.491-4.146-4.085-5.523-5.681-4.911-2.967 1.139-2.901 3.597.244 9.094 2.125 3.714 3.71 5.39 5.097 5.39 3.08 0 21-16.889 20.634-19.448-.193-1.344-1.156-2.151-2.794-2.339-1.956-.225-4.024 1.254-9.5 6.795m-40.187 25.939-6.808 5.952-3.333-5.449c-2.488-4.068-3.919-5.45-5.645-5.45-3.909 0-3.881 2.88.091 9.423 4.765 7.85 6.295 9.577 8.486 9.577 2.442 0 17.896-13.958 17.896-16.164 0-.971-.873-2.233-1.939-2.804-1.637-.875-3.002-.108-8.748 4.915m-38.547-2.566c-1.774 1.347-1.393 2.619.784 2.619.669 0 1.452-.9 1.74-2 .603-2.308-.079-2.476-2.524-.619m73.536 7.185-7.197 6.538-1.487-2.875c-.817-1.581-2.134-3.412-2.925-4.069-2.006-1.665-4.693-.381-4.693 2.241 0 3.321 6.187 13.053 8.506 13.38 1.382.196 4.752-2.492 10.983-8.759 7.605-7.65 8.82-9.309 7.893-10.782-1.926-3.057-3.723-2.356-11.08 4.326M125 170.071c-7.8 2.151-17.252 2.341-25.75.518-7.171-1.539-7.661-.98-3.961 4.513 3.606 5.354 9.524 8.082 17.647 8.133 9.094.056 15.11-2.75 18.578-8.669 4.206-7.177 3.922-7.373-6.514-4.495m16 .969c0 6.098-8.85 15.983-16.193 18.086-5.83 1.67-16.28 1.672-22.015.006-6.24-1.814-12.577-7.389-15.229-13.398l-2.145-4.861-6.197 4.138c-10.996 7.343-20.107 20.17-21.786 30.672l-.653 4.08 7.859 2.598c10.944 3.618 20.574 5.482 34.608 6.701 19.843 1.723 49.691-1.647 64.53-7.286l5.721-2.174-8.639-1.613c-9.614-1.796-13.028-3.576-15.905-8.293-2.342-3.842-2.431-7.483-.456-18.696 2.028-11.514 1.988-12-1-12-1.85 0-2.5.531-2.5 2.04"/></svg>